<?xml version="1.0" encoding="iso-8859-1"?>
<!-- Generator: Adobe Illustrator 19.0.0, SVG Export Plug-In . SVG Version: 6.00 Build 0)  -->
<svg version="1.1" id="Layer_1" xmlns="http://www.w3.org/2000/svg" xmlns:xlink="http://www.w3.org/1999/xlink" x="0px" y="0px"
	 viewBox="0 0 512 512" style="enable-background:new 0 0 512 512;" xml:space="preserve">
<path style="fill:#ACACB2;" d="M449.371,228.005H62.629c-9.563,0-17.317-7.753-17.317-17.317C45.312,94.514,139.826,0,256,0
	s210.688,94.514,210.688,210.688C466.688,220.251,458.934,228.005,449.371,228.005z M80.791,193.371h350.418
	C422.483,104.391,347.234,34.634,256,34.634S89.517,104.391,80.791,193.371z"/>
<path style="fill:#797882;" d="M431.209,193.371H256v34.634h193.371c9.564,0,17.317-7.753,17.317-17.317
	C466.688,94.514,372.174,0,256,0v34.634C347.234,34.634,422.483,104.391,431.209,193.371z"/>
<path style="fill:#A9825A;" d="M109.044,178.363c-3.836,0-7.484,1.666-9.998,4.564c-2.513,2.899-3.642,6.745-3.103,10.544
	l43.575,307.154c0.925,6.518,6.502,11.376,13.085,11.376c39.51,0,167.265,0,206.794,0c6.598,0,12.159-4.844,13.085-11.376
	l43.576-307.154c0.538-3.796-0.597-7.637-3.109-10.533c-2.512-2.897-6.158-4.574-9.992-4.574
	C348.213,178.363,163.756,178.363,109.044,178.363z"/>
<path style="fill:#7E6142;" d="M402.957,178.363c-27.37,0-87.165,0-146.957,0V512c41.817,0,83.634,0,103.397,0
	c6.597,0,12.159-4.844,13.085-11.376l43.576-307.154c0.538-3.796-0.597-7.637-3.109-10.533
	C410.437,180.04,406.79,178.363,402.957,178.363z"/>
<g>
	<path style="fill:#A9825A;" d="M399.9,324.675H112.1c-9.563,0-17.317-7.753-17.317-17.317c0-9.564,7.753-17.317,17.317-17.317
		H399.9c9.564,0,17.317,7.753,17.317,17.317C417.217,316.922,409.464,324.675,399.9,324.675z"/>
	<path style="fill:#A9825A;" d="M384.307,434.593H127.693c-9.563,0-17.317-7.753-17.317-17.317s7.753-17.317,17.317-17.317h256.613
		c9.563,0,17.317,7.753,17.317,17.317S393.871,434.593,384.307,434.593z"/>
</g>
<g>
	<polygon style="fill:#7E6142;" points="381.895,434.267 130.105,434.267 134.254,463.513 377.746,463.513 	"/>
	<polygon style="fill:#7E6142;" points="397.401,324.979 114.599,324.979 118.748,354.224 393.252,354.224 	"/>
</g>
<g>
</g>
<g>
</g>
<g>
</g>
<g>
</g>
<g>
</g>
<g>
</g>
<g>
</g>
<g>
</g>
<g>
</g>
<g>
</g>
<g>
</g>
<g>
</g>
<g>
</g>
<g>
</g>
<g>
</g>
</svg>
